<svg xmlns="http://www.w3.org/2000/svg" width="18.138" height="20.63" viewBox="0 0 18.138 20.63">
  <g id="svgexport-17_4_" data-name="svgexport-17 (4)" transform="translate(-2.899 -1.1)">
    <path id="Path_53073" data-name="Path 53073" d="M8.936,21.252a.623.623,0,1,0,0,1.246h4.733a.623.623,0,1,0,0-1.246Zm9.4-5.809h-9.4a.623.623,0,1,0,0,1.246h9.4a.623.623,0,1,0,0-1.246Zm.624,3.528a.623.623,0,0,0-.623-.623h-9.4a.623.623,0,0,0,0,1.246h9.4a.623.623,0,0,0,.624-.623Z" transform="translate(-1.666 -4.414)" fill="#2d77d7"/>
    <path id="Path_53074" data-name="Path 53074" d="M18.579,3.591H12.6a.623.623,0,1,0,0,1.246h5.976a1.209,1.209,0,0,1,1.211,1.2v13.23a1.213,1.213,0,0,1-1.211,1.211H5.357a1.213,1.213,0,0,1-1.211-1.211V6.043a1.209,1.209,0,0,1,1.211-1.2h3.85V6.933a.451.451,0,0,1-.9,0V6.286a.623.623,0,1,0-1.246,0v.647a1.7,1.7,0,1,0,3.4,0V3.263a2.164,2.164,0,0,0-4.327,0v.329h-.77A2.457,2.457,0,0,0,2.9,6.043V19.272A2.461,2.461,0,0,0,5.357,21.73H18.579a2.461,2.461,0,0,0,2.458-2.458V6.043a2.457,2.457,0,0,0-2.458-2.451Zm-11.2-.328a.916.916,0,1,1,1.832,0v.329H7.374Z" transform="translate(0)" fill="#2d77d7"/>
  </g>
</svg>
