<svg width="26" height="18" viewBox="0 0 26 18" fill="none" xmlns="http://www.w3.org/2000/svg">
<path fill-rule="evenodd" clip-rule="evenodd" d="M7.75 16.125C7.75 15.8929 7.84219 15.6704 8.00628 15.5063C8.17038 15.3422 8.39294 15.25 8.625 15.25H24.375C24.6071 15.25 24.8296 15.3422 24.9937 15.5063C25.1578 15.6704 25.25 15.8929 25.25 16.125C25.25 16.3571 25.1578 16.5796 24.9937 16.7437C24.8296 16.9078 24.6071 17 24.375 17H8.625C8.39294 17 8.17038 16.9078 8.00628 16.7437C7.84219 16.5796 7.75 16.3571 7.75 16.125ZM7.75 9.125C7.75 8.89294 7.84219 8.67038 8.00628 8.50628C8.17038 8.34219 8.39294 8.25 8.625 8.25H24.375C24.6071 8.25 24.8296 8.34219 24.9937 8.50628C25.1578 8.67038 25.25 8.89294 25.25 9.125C25.25 9.35706 25.1578 9.57962 24.9937 9.74372C24.8296 9.90781 24.6071 10 24.375 10H8.625C8.39294 10 8.17038 9.90781 8.00628 9.74372C7.84219 9.57962 7.75 9.35706 7.75 9.125ZM7.75 2.125C7.75 1.89294 7.84219 1.67038 8.00628 1.50628C8.17038 1.34219 8.39294 1.25 8.625 1.25H24.375C24.6071 1.25 24.8296 1.34219 24.9937 1.50628C25.1578 1.67038 25.25 1.89294 25.25 2.125C25.25 2.35706 25.1578 2.57962 24.9937 2.74372C24.8296 2.90781 24.6071 3 24.375 3H8.625C8.39294 3 8.17038 2.90781 8.00628 2.74372C7.84219 2.57962 7.75 2.35706 7.75 2.125ZM2.5 3.875C2.96413 3.875 3.40925 3.69063 3.73744 3.36244C4.06563 3.03425 4.25 2.58913 4.25 2.125C4.25 1.66087 4.06563 1.21575 3.73744 0.887563C3.40925 0.559374 2.96413 0.375 2.5 0.375C2.03587 0.375 1.59075 0.559374 1.26256 0.887563C0.934374 1.21575 0.75 1.66087 0.75 2.125C0.75 2.58913 0.934374 3.03425 1.26256 3.36244C1.59075 3.69063 2.03587 3.875 2.5 3.875ZM2.5 10.875C2.96413 10.875 3.40925 10.6906 3.73744 10.3624C4.06563 10.0342 4.25 9.58913 4.25 9.125C4.25 8.66087 4.06563 8.21575 3.73744 7.88756C3.40925 7.55937 2.96413 7.375 2.5 7.375C2.03587 7.375 1.59075 7.55937 1.26256 7.88756C0.934374 8.21575 0.75 8.66087 0.75 9.125C0.75 9.58913 0.934374 10.0342 1.26256 10.3624C1.59075 10.6906 2.03587 10.875 2.5 10.875ZM2.5 17.875C2.96413 17.875 3.40925 17.6906 3.73744 17.3624C4.06563 17.0342 4.25 16.5891 4.25 16.125C4.25 15.6609 4.06563 15.2158 3.73744 14.8876C3.40925 14.5594 2.96413 14.375 2.5 14.375C2.03587 14.375 1.59075 14.5594 1.26256 14.8876C0.934374 15.2158 0.75 15.6609 0.75 16.125C0.75 16.5891 0.934374 17.0342 1.26256 17.3624C1.59075 17.6906 2.03587 17.875 2.5 17.875Z" fill="#949494"/>
</svg>
