<svg width="21" height="20" viewBox="0 0 21 20" fill="none" xmlns="http://www.w3.org/2000/svg">
<path d="M10.2451 14.9271V12.3901" stroke="black" stroke-width="1.5" stroke-linecap="round" stroke-linejoin="round"/>
<path fill-rule="evenodd" clip-rule="evenodd" d="M16.44 3.58008C18.13 3.58008 19.49 4.95008 19.49 6.64008V10.0801C17.03 11.5201 13.78 12.3901 10.24 12.3901C6.7 12.3901 3.46 11.5201 1 10.0801V6.63008C1 4.94008 2.37 3.58008 4.06 3.58008H16.44Z" stroke="black" stroke-width="1.5" stroke-linecap="round" stroke-linejoin="round"/>
<path d="M13.7451 3.576V3.21C13.7451 1.99 12.7551 1 11.5351 1H8.95512C7.73512 1 6.74512 1.99 6.74512 3.21V3.576" stroke="black" stroke-width="1.5" stroke-linecap="round" stroke-linejoin="round"/>
<path d="M1.02441 13.7329L1.21441 16.2429C1.27616 17.0577 1.64331 17.8191 2.24239 18.3748C2.84147 18.9305 3.62829 19.2395 4.44541 19.2399H16.0454C16.8627 19.2395 17.6497 18.9303 18.2488 18.3744C18.8479 17.8185 19.2149 17.0569 19.2764 16.2419L19.4664 13.7329" stroke="black" stroke-width="1.5" stroke-linecap="round" stroke-linejoin="round"/>
</svg>
